<?xml version="1.0" encoding="iso-8859-1"?>
<!-- Generator: Adobe Illustrator 19.0.0, SVG Export Plug-In . SVG Version: 6.00 Build 0)  -->
<svg version="1.1" id="&#x56FE;&#x5C42;_1" xmlns="http://www.w3.org/2000/svg" xmlns:xlink="http://www.w3.org/1999/xlink" x="0px"
	 y="0px" viewBox="0 0 311.81 226.77" style="enable-background:new 0 0 311.81 226.77;" xml:space="preserve">
<path style="fill:#641400;" d="M173.783,156.245c0.424,0.014,0.829,0.027,1.25-0.027c0.351-0.045,0.351-0.502,0-0.547
	c-0.421-0.054-0.826-0.041-1.25-0.027C173.395,155.656,173.395,156.232,173.783,156.245z"/>
<g>
	<path style="fill:#ED6F20;" d="M132.526,130.851c1.255,0,2.031-0.122,2.039-0.123c0.04-0.007,0.08-0.01,0.119-0.01
		c0.109,0,0.211,0.031,0.307,0.075c1.872-2.239,3.851-4.451,5.898-6.615c-9.939-3.076-16.274-17.522-16.546-18.153
		c-0.164-0.38,0.011-0.821,0.392-0.985c0.379-0.164,0.821,0.011,0.985,0.392c0.065,0.152,6.659,15.194,16.339,17.522
		c3.054-3.166,6.23-6.22,9.389-9.102c-8.051-15.034-7.099-28.273-7.055-28.828c0.033-0.413,0.395-0.721,0.808-0.688
		c0.412,0.032,0.721,0.394,0.688,0.807c-0.011,0.131-0.934,13.175,6.708,27.667c13.454-12.121,26.242-20.954,27.245-21.642
		c0.341-0.234,0.81-0.146,1.042,0.194c0.234,0.341,0.147,0.808-0.194,1.042c-0.246,0.17-13.287,9.178-27.014,21.55
		c2.934,2.663,12.158,10.13,25.647,12.485c0.408,0.071,0.682,0.46,0.61,0.868c-0.064,0.364-0.381,0.621-0.738,0.621
		c-0.043,0-0.086-0.004-0.13-0.011c-14.167-2.474-23.567-10.213-26.514-12.943c-3.23,2.948-6.478,6.072-9.591,9.303
		c1.247,3.029,6.123,13.604,15.437,19.148c0.355,0.212,0.473,0.672,0.261,1.028c-0.141,0.235-0.39,0.366-0.646,0.366
		c-0.13,0-0.263-0.034-0.383-0.105c-9.263-5.514-14.188-15.449-15.805-19.247c-2.14,2.264-4.204,4.575-6.14,6.91
		c5.612,22.509,19.544,27.39,24.118,28.392c-1.24-2.465-1.454-4.461-1.464-4.559c-0.028-0.282,0.105-0.556,0.343-0.708
		c0.238-0.151,0.542-0.156,0.786-0.012c4.381,2.6,9.601,3.146,13.207,3.146c2.65,0,4.787-0.288,5.773-0.449
		c-0.112-9.996-9.053-18.308-9.145-18.393c-0.267-0.244-0.32-0.643-0.129-0.95c0.191-0.307,0.575-0.433,0.911-0.301
		c3.27,1.289,7.141,1.942,11.506,1.942c2.877,0,5.254-0.296,6.479-0.484c-1.194-2.286-3.857-2.693-3.888-2.698
		c-0.35-0.05-0.619-0.339-0.642-0.693c-0.023-0.354,0.204-0.676,0.546-0.771c5.469-1.531,11.586-6.066,13.401-7.478
		c-6.733-9.597-19.897-10.091-22.512-10.091c-0.423,0-0.324,0.005-0.34,0.004c-0.364,0-0.679-0.264-0.739-0.625
		c-0.062-0.37,0.157-0.729,0.516-0.841c10.301-3.219,18.061-10.899,20.531-13.573c-0.723-0.1-1.621-0.15-2.662-0.15
		c-1.892,0-3.611,0.169-3.629,0.171c-0.325,0.037-0.637-0.151-0.765-0.453c-0.128-0.303-0.045-0.653,0.206-0.865
		c5.95-5.036,12.035-20.016,13.429-23.588c-2.034-0.506-4.27-0.763-6.66-0.763c-9.592,0-18.753,4.114-18.844,4.155
		c-0.267,0.121-0.58,0.076-0.804-0.118c-0.222-0.193-0.31-0.498-0.226-0.78c0.475-1.579,0.223-3.061-0.005-3.889
		c-6.147,2.76-17.647,14.947-17.767,15.075c-0.216,0.228-0.549,0.302-0.837,0.178c-0.288-0.121-0.472-0.408-0.459-0.721
		c0.462-11.799-7.797-20.632-9.599-22.412c-4.361,2.088-8.521,9.843-8.563,9.923c-0.155,0.29-0.483,0.449-0.803,0.385
		c-0.323-0.062-0.568-0.327-0.605-0.653c-0.151-1.36-1.58-2.783-2.556-3.569c-2.496,4.191-5.589,17.195-5.622,17.334
		c-0.061,0.261-0.258,0.469-0.515,0.546c-0.262,0.075-0.537,0.011-0.731-0.175c-4.115-3.899-12.073-5.086-14.424-5.358
		c-1.599,9.029,0.354,15.793,0.375,15.862c0.089,0.299-0.017,0.621-0.265,0.809c-0.248,0.19-0.587,0.204-0.852,0.039
		c-1.077-0.674-1.971-0.821-2.534-0.796C111.952,128.16,126.397,130.851,132.526,130.851z M142.103,138.223
		c-0.198,0.381-0.783,0.114-0.678-0.286c0.596-2.278,1.419-4.258,1.522-6.651c0.019-0.435,0.645-0.431,0.672,0
		C143.767,133.698,143.218,136.082,142.103,138.223z M153.701,146.035c0.03-0.431,0.625-0.425,0.664,0
		c0.078,0.853,0.005,1.703-0.051,2.556c-0.051,0.765-0.006,1.547-0.143,2.301c-0.071,0.393-0.694,0.377-0.776,0
		C153.065,149.384,153.594,147.569,153.701,146.035z M147.377,152.802c-0.304-0.164-0.094-0.684,0.238-0.564
		c1.65,0.594,3.822,0.322,5.191,1.524c0.28,0.246-0.015,0.793-0.376,0.646c-0.87-0.353-1.701-0.659-2.624-0.847
		C148.959,153.389,148.142,153.215,147.377,152.802z M154.452,156.579c-1.122-0.213-2.275-0.428-3.419-0.407
		c-0.502,0.009-0.494-0.746,0-0.773c1.268-0.07,2.408,0.114,3.581,0.593C154.973,156.138,154.844,156.654,154.452,156.579z
		 M154.078,132.886c-1.432-1.031-2.942-1.573-4.649-1.974c-0.5-0.118-0.278-0.83,0.208-0.753c1.737,0.275,3.912,0.635,4.997,2.172
		C154.864,132.657,154.404,133.122,154.078,132.886z M157.622,125.035c0.156,1.675,0.606,3.404,1.656,4.754
		c0.276,0.355-0.136,0.771-0.492,0.492c-1.5-1.177-1.773-3.464-1.844-5.246C156.925,124.592,157.583,124.607,157.622,125.035z
		 M160.924,140.181c-1.141-0.48-2.145-0.739-3.391-0.786c-0.465-0.018-0.462-0.694,0-0.719c1.263-0.069,2.828-0.149,3.79,0.819
		C161.59,139.765,161.321,140.348,160.924,140.181z M164.156,155.251c-0.148-0.063-0.158-0.292-0.051-0.393
		c0.422-0.394,1.27-0.424,1.809-0.546c0.783-0.177,1.559-0.381,2.368-0.371c0.405,0.005,0.446,0.545,0.091,0.675
		c-0.85,0.312-1.754,0.402-2.644,0.544C165.25,155.237,164.623,155.451,164.156,155.251z M173.783,156.985
		c0.424-0.014,0.829-0.027,1.25,0.027c0.351,0.045,0.351,0.502,0,0.547c-0.421,0.054-0.826,0.042-1.25,0.027
		C173.395,157.573,173.395,156.997,173.783,156.985z M172.62,155.469c0.365,0.09,0.279,0.641-0.087,0.645
		c-1.483,0.015-3.029,0.366-4.5,0.168c-0.312-0.042-0.321-0.458,0-0.492C169.525,155.631,171.129,155.101,172.62,155.469z
		 M176.243,135.075c-0.47-0.364-0.834-0.83-1.244-1.257c-0.409-0.426-0.833-0.833-1.281-1.218c-0.441-0.38,0.19-0.98,0.63-0.63
		c0.915,0.729,1.962,1.576,2.539,2.608C177.13,135.014,176.594,135.347,176.243,135.075z M193.056,129.309
		c0.511-0.618,1.121-1.09,1.898-1.31c0.323-0.091,0.525,0.379,0.229,0.543c-0.612,0.338-1.194,0.705-1.673,1.22
		C193.223,130.069,192.798,129.622,193.056,129.309z M188.631,130.801c0.475-0.617,1.09-1.1,1.901-1.09
		c0.298,0.004,0.475,0.469,0.164,0.604c-0.498,0.217-0.948,0.502-1.262,0.955C189.09,131.766,188.271,131.269,188.631,130.801z
		 M183.751,132.004c0.706-0.804,1.565-1.707,2.675-1.856c0.413-0.056,0.755,0.509,0.31,0.735c-0.911,0.464-1.683,0.969-2.421,1.684
		C183.942,132.928,183.414,132.387,183.751,132.004z M165.916,117.957c-1.474-0.368-2.868-0.472-4.384-0.445
		c-0.618,0.011-0.61-0.922,0-0.953c1.579-0.082,3.308-0.239,4.721,0.599C166.685,117.414,166.397,118.077,165.916,117.957z
		 M173.216,107.599c-2.356,1.468-5.005,0.661-7.578,1.317c-0.497,0.127-0.688-0.598-0.21-0.761c2.402-0.816,5.095-0.102,7.422-1.183
		C173.269,106.777,173.62,107.348,173.216,107.599z M174.283,122.352c1.158-0.035,2.252-0.278,3.388-0.473
		c0.44-0.076,0.783,0.542,0.325,0.771c-1.144,0.572-2.452,0.662-3.713,0.569C173.729,123.178,173.719,122.369,174.283,122.352z
		 M174.888,101.012c1.555-0.592,3.15-0.858,4.781-1.137c0.546-0.093,0.736,0.619,0.226,0.821c-1.535,0.608-3.161,0.834-4.719,1.363
		C174.506,102.287,174.245,101.257,174.888,101.012z M185.8,109.053c-0.965,0.823-1.97,1.68-3.081,2.302
		c-0.356,0.2-0.787-0.31-0.45-0.583c0.989-0.801,1.933-1.732,3.071-2.315C185.707,108.271,186.143,108.761,185.8,109.053z
		 M182.814,109.317c-0.637,0.728-1.514,1.243-2.334,1.74c-0.899,0.545-1.81,1.1-2.772,1.528c-0.407,0.181-0.724-0.342-0.351-0.601
		c0.867-0.601,1.796-1.11,2.668-1.706c0.767-0.524,1.488-1.147,2.306-1.588C182.74,108.471,183.11,108.979,182.814,109.317z
		 M172.054,93.154c0.421-2.049,1.359-3.931,1.773-5.994c0.107-0.534,0.926-0.396,0.928,0.126c0.01,2.123-0.939,4.208-1.744,6.132
		C172.769,93.996,171.922,93.796,172.054,93.154z M165.603,94.167c0.088-0.493,0.923-0.381,0.875,0.118
		c-0.08,0.825-0.273,1.611-0.489,2.41c-0.185,0.686-0.291,1.405-0.606,2.045c-0.151,0.307-0.677,0.242-0.743-0.097
		C164.36,97.18,165.348,95.598,165.603,94.167z M153.577,101.66c0.423-1.537,1.171-2.931,1.519-4.495
		c0.113-0.509,0.886-0.382,0.89,0.121c0.013,1.692-0.855,3.245-1.545,4.738C154.211,102.52,153.438,102.164,153.577,101.66z
		 M151.178,84.828c0.207-0.417,0.894-0.124,0.75,0.316c-0.483,1.475-0.611,3.085-1.208,4.511c-0.179,0.427-0.941,0.436-0.89-0.12
		C149.975,87.937,150.464,86.266,151.178,84.828z M143.214,105.725c0.308,0.144,0.177,0.562-0.086,0.657
		c-1.159,0.418-2.841-0.368-3.789-1.016c-0.409-0.28-0.059-0.875,0.386-0.661c0.6,0.289,1.237,0.51,1.892,0.636
		C142.161,105.445,142.707,105.489,143.214,105.725z M137.119,91.223c1.819,0.321,3.206,1.968,4.855,2.736
		c0.418,0.195,0.1,0.759-0.292,0.693c-1.862-0.315-3.029-2.095-4.736-2.803C136.564,91.689,136.7,91.149,137.119,91.223z
		 M136.376,110.785c0.024-0.521,0.818-0.526,0.812,0c-0.023,2.31,1.022,4.455,0.977,6.75c-0.008,0.425-0.648,0.53-0.752,0.102
		C136.876,115.421,136.269,113.08,136.376,110.785z M129.228,102.535c-0.016-0.29,0.445-0.434,0.568-0.154
		c0.807,1.838,0.309,4.093,0.621,6.048c0.065,0.41-0.525,0.75-0.728,0.307C128.827,106.861,129.336,104.546,129.228,102.535z
		 M130.783,122.625c0.484-0.062,0.52,0.664,0.109,0.806c-1.853,0.642-3.925,0.606-5.859,0.472c-0.468-0.033-0.478-0.728,0-0.734
		C126.979,123.143,128.857,122.87,130.783,122.625z M119.533,116.176c1.701-0.037,3.252,0.384,4.909-0.222
		c0.396-0.145,0.552,0.414,0.265,0.628c-1.52,1.131-3.459,0.353-5.173,0.312C119.069,116.884,119.069,116.186,119.533,116.176z"/>
	<path style="fill:#FFFFFF;" d="M200.309,77.876c-0.094-0.036-0.186-0.077-0.299-0.091c-4.216-0.505-8.735-0.657-12.93,0.335
		c-4.286,0.329-8.442,1.175-11.666,3.362l-0.058-3.217c-0.012-0.675-0.739-1.091-1.328-0.762
		c-6.309,3.529-11.999,8.294-17.454,13.052c-1.261-7.101-4.049-13.531-8.469-19.35c-3.782-4.979-8.798,3.204-11.281,7.056
		c-0.476-1.024-1.023-1.975-1.623-3.003c-0.4-0.687-1.518-0.746-1.903,0c-2.834,5.492-4.849,11.293-6.253,17.294
		c-3.945-2.803-10.7-7.24-14.876-5.062c-1.326,0.692-1.237,3.374-1.347,4.51c-0.373,3.868-0.042,7.73,0.622,11.538
		c-0.468-0.08-0.936-0.16-1.404-0.241c-0.729-0.125-1.337,0.42-1.175,1.175c0.784,3.652,1.494,7.349,2.741,10.875
		c0.137,0.388,0.776,0.353,0.752-0.101c-0.172-3.301-0.777-6.561-1.38-9.811c0.48,0.098,0.961,0.196,1.441,0.294
		c0.798,0.163,1.356-0.462,1.232-1.232c-0.206-1.284-2.318-16.077,1.643-15.146c4.29,1.007,8.368,3.567,11.904,6.111
		c0.585,0.421,1.532-0.004,1.679-0.683c1.254-5.809,3.141-11.275,5.539-16.673c0.502,0.746,1.028,1.464,1.662,2.168
		c0.374,0.415,1.058,0.194,1.263-0.246c1.807-1.618,3.489-3.299,5.117-5.101c0.826-0.925,1.653-1.85,2.479-2.775
		c0.797-0.892,3.671,3.8,3.963,4.257c3.195,4.992,4.954,10.765,5.837,16.582c0.135,0.888,1.303,0.986,1.858,0.49
		c5.419-4.842,11.325-8.984,17.032-13.439c0.018,0.832,0.035,1.663,0.053,2.495c0.023,1.054,1.534,1.111,1.715,0.191
		c7.682-2.616,15.821-2.434,23.867-2.798c-2.009,4.158-3.855,8.392-5.98,12.497c-2.062,3.983-5.774,6.647-7.186,10.978
		c-0.199,0.609,0.324,1.155,0.905,1.188c1.245,0.069,2.49,0.145,3.734,0.219c-0.807,0.948-1.536,2.029-2.304,2.88
		c-1.411,1.563-3.191,2.847-4.507,4.472c-0.061,0.076-0.007,0.197,0.099,0.17c1.889-0.494,3.641-1.882,5.156-3.071
		c1.386-1.087,3.281-2.599,4.143-4.299c0.236,0.014,0.472,0.027,0.708,0.041c1.265,0.076,1.267-1.913,0-1.969
		c-1.894-0.084-3.788-0.17-5.682-0.258c1.724-3.812,5.604-6.801,7.574-10.573c2.269-4.343,4.179-8.926,5.395-13.674
		C201.473,77.931,200.709,77.505,200.309,77.876z"/>
	<path style="fill:#641400;" d="M132.526,132.351c0.483,0,0.875-0.019,1.217-0.04c-4.944,6.114-9.007,12.399-11.29,18.467
		c-0.146,0.388,0.051,0.819,0.438,0.966c0.087,0.032,0.176,0.048,0.264,0.048c0.303,0,0.589-0.186,0.702-0.486
		c2.145-5.699,5.969-11.651,10.653-17.488c7.234,27.048,26.47,28.683,26.668,28.697c0.018,0.001,0.034,0.002,0.051,0.002
		c0.01,0.001,0.015,0,0.02,0c0.415,0,0.75-0.336,0.75-0.75c0-0.204-0.081-0.39-0.214-0.524c-0.864-1.391-1.357-2.716-1.631-3.679
		c4.325,2.105,9.112,2.575,12.52,2.575c3.824,0,6.559-0.563,6.673-0.587c0.341-0.071,0.588-0.368,0.597-0.716
		c0.196-7.854-4.645-14.625-7.539-17.955c2.764,0.735,5.841,1.107,9.186,1.107c4.365,0,7.541-0.642,7.674-0.669
		c0.207-0.042,0.387-0.17,0.495-0.352c0.107-0.183,0.134-0.401,0.071-0.604c-0.62-2.016-2.008-3.155-3.228-3.789
		c6.117-2.373,12.092-7.247,12.371-7.477c0.295-0.242,0.36-0.668,0.152-0.988c-5.461-8.387-15.331-10.586-20.773-11.149
		c10.997-4.625,18.245-13.301,18.577-13.704c0.158-0.191,0.211-0.447,0.143-0.685c-0.068-0.237-0.249-0.427-0.483-0.505
		c-0.959-0.319-2.408-0.48-4.31-0.48c-0.605,0-1.19,0.016-1.711,0.039c6.477-7.024,12.387-22.803,12.653-23.521
		c0.072-0.195,0.061-0.412-0.033-0.599c-0.094-0.186-0.262-0.325-0.462-0.383c-2.375-0.686-5.021-1.034-7.866-1.034
		c-7.844,0-15.219,2.576-18.148,3.738c0.234-2.275-0.549-4.075-0.589-4.165c-0.159-0.355-0.564-0.53-0.932-0.403
		c-5.148,1.791-14.354,10.892-17.767,14.391c-0.417-12.841-10.015-21.631-10.442-22.016c-0.211-0.19-0.511-0.243-0.773-0.142
		c-3.828,1.489-7.383,6.765-8.945,9.356c-1.051-1.907-3.126-3.308-3.237-3.382c-0.33-0.22-0.77-0.145-1.011,0.167
		c-2.319,3.016-5.111,13.703-6.012,17.326c-5.436-4.229-14.642-4.983-15.054-5.016c-0.368-0.005-0.721,0.231-0.794,0.604
		c-1.398,7.193-0.62,13.021-0.085,15.687c-1.712-0.579-2.776-0.208-2.901-0.168c-0.332,0.111-0.544,0.438-0.509,0.786
		C110.376,130.225,127.379,132.351,132.526,132.351z M112.616,104.18c0.248-0.188,0.353-0.511,0.265-0.809
		c-0.021-0.069-1.974-6.833-0.375-15.862c2.351,0.272,10.309,1.459,14.424,5.358c0.193,0.186,0.469,0.25,0.731,0.175
		c0.257-0.077,0.453-0.285,0.515-0.546c0.033-0.139,3.126-13.143,5.622-17.334c0.976,0.786,2.404,2.209,2.556,3.569
		c0.036,0.326,0.281,0.592,0.605,0.653c0.319,0.064,0.647-0.095,0.803-0.385c0.043-0.08,4.202-7.835,8.563-9.923
		c1.802,1.78,10.061,10.613,9.599,22.412c-0.013,0.312,0.171,0.6,0.459,0.721c0.288,0.124,0.621,0.05,0.837-0.178
		c0.119-0.128,11.619-12.315,17.767-15.075c0.228,0.828,0.48,2.31,0.005,3.889c-0.084,0.282,0.004,0.587,0.226,0.78
		c0.224,0.194,0.537,0.239,0.804,0.118c0.091-0.041,9.252-4.155,18.844-4.155c2.39,0,4.626,0.257,6.66,0.763
		c-1.394,3.572-7.479,18.552-13.429,23.588c-0.251,0.212-0.334,0.562-0.206,0.865c0.128,0.302,0.439,0.49,0.765,0.453
		c0.018-0.002,1.737-0.171,3.629-0.171c1.041,0,1.939,0.051,2.662,0.15c-2.471,2.674-10.23,10.354-20.531,13.573
		c-0.358,0.111-0.578,0.471-0.516,0.841c0.061,0.361,0.375,0.625,0.739,0.625c0.016,0.001-0.083-0.004,0.34-0.004
		c2.614,0,15.778,0.494,22.512,10.091c-1.815,1.411-7.933,5.946-13.401,7.478c-0.342,0.096-0.569,0.418-0.546,0.771
		c0.023,0.354,0.291,0.643,0.642,0.693c0.03,0.005,2.693,0.412,3.888,2.698c-1.225,0.188-3.602,0.484-6.479,0.484
		c-4.365,0-8.236-0.653-11.506-1.942c-0.336-0.132-0.72-0.006-0.911,0.301c-0.191,0.307-0.138,0.706,0.129,0.95
		c0.092,0.085,9.032,8.396,9.145,18.393c-0.986,0.161-3.123,0.449-5.773,0.449c-3.606,0-8.826-0.546-13.207-3.146
		c-0.244-0.145-0.548-0.14-0.786,0.012c-0.238,0.152-0.371,0.426-0.343,0.708c0.01,0.098,0.224,2.094,1.464,4.559
		c-4.574-1.002-18.506-5.883-24.118-28.392c1.936-2.335,4-4.646,6.14-6.91c1.616,3.798,6.542,13.732,15.805,19.247
		c0.12,0.071,0.253,0.105,0.383,0.105c0.256,0,0.505-0.131,0.646-0.366c0.212-0.357,0.095-0.816-0.261-1.028
		c-9.313-5.544-14.19-16.119-15.437-19.148c3.113-3.231,6.361-6.355,9.591-9.303c2.947,2.73,12.347,10.469,26.514,12.943
		c0.044,0.007,0.087,0.011,0.13,0.011c0.357,0,0.674-0.257,0.738-0.621c0.071-0.408-0.202-0.797-0.61-0.868
		c-13.489-2.355-22.713-9.822-25.647-12.485c13.727-12.372,26.768-21.38,27.014-21.55c0.342-0.234,0.429-0.701,0.194-1.042
		c-0.232-0.341-0.701-0.429-1.042-0.194c-1.003,0.688-13.791,9.521-27.245,21.642c-7.642-14.492-6.718-27.536-6.708-27.667
		c0.032-0.413-0.276-0.774-0.688-0.807c-0.413-0.033-0.774,0.274-0.808,0.688c-0.044,0.555-0.997,13.794,7.055,28.828
		c-3.158,2.882-6.335,5.936-9.389,9.102c-9.68-2.328-16.274-17.37-16.339-17.522c-0.164-0.381-0.606-0.556-0.985-0.392
		c-0.381,0.164-0.556,0.605-0.392,0.985c0.272,0.631,6.607,15.077,16.546,18.153c-2.047,2.164-4.026,4.376-5.898,6.615
		c-0.096-0.044-0.198-0.075-0.307-0.075c-0.039,0-0.079,0.003-0.119,0.01c-0.008,0.001-0.784,0.123-2.039,0.123
		c-6.129,0-20.573-2.69-23.296-27.428c0.563-0.025,1.457,0.122,2.534,0.796C112.029,104.384,112.368,104.369,112.616,104.18z"/>
	<path style="fill:#641400;" d="M125.033,123.903c1.934,0.134,4.006,0.17,5.859-0.472c0.411-0.142,0.375-0.867-0.109-0.806
		c-1.925,0.245-3.803,0.518-5.75,0.543C124.555,123.174,124.565,123.87,125.033,123.903z"/>
	<path style="fill:#641400;" d="M119.533,116.895c1.715,0.041,3.654,0.819,5.173-0.312c0.287-0.214,0.131-0.773-0.265-0.628
		c-1.656,0.606-3.207,0.185-4.909,0.222C119.069,116.186,119.069,116.884,119.533,116.895z"/>
	<path style="fill:#641400;" d="M129.688,108.737c0.204,0.443,0.794,0.102,0.728-0.307c-0.312-1.955,0.186-4.21-0.621-6.048
		c-0.123-0.28-0.583-0.137-0.568,0.154C129.336,104.546,128.827,106.861,129.688,108.737z"/>
	<path style="fill:#641400;" d="M138.165,117.535c0.045-2.295-1-4.44-0.977-6.75c0.005-0.526-0.788-0.521-0.812,0
		c-0.108,2.295,0.5,4.636,1.037,6.852C137.517,118.066,138.157,117.96,138.165,117.535z"/>
	<path style="fill:#641400;" d="M139.726,104.705c-0.445-0.214-0.795,0.381-0.386,0.661c0.947,0.648,2.63,1.434,3.789,1.016
		c0.263-0.095,0.394-0.513,0.086-0.657c-0.507-0.236-1.053-0.28-1.596-0.384C140.963,105.214,140.326,104.993,139.726,104.705z"/>
	<path style="fill:#641400;" d="M136.946,91.848c1.707,0.708,2.873,2.488,4.736,2.803c0.392,0.066,0.71-0.498,0.292-0.693
		c-1.649-0.767-3.036-2.415-4.855-2.736C136.7,91.149,136.564,91.689,136.946,91.848z"/>
	<path style="fill:#641400;" d="M150.72,89.656c0.597-1.427,0.725-3.036,1.208-4.511c0.144-0.44-0.542-0.733-0.75-0.316
		c-0.714,1.437-1.203,3.109-1.349,4.707C149.779,90.092,150.54,90.083,150.72,89.656z"/>
	<path style="fill:#641400;" d="M154.441,102.024c0.69-1.493,1.558-3.047,1.545-4.738c-0.004-0.502-0.777-0.629-0.89-0.121
		c-0.347,1.564-1.096,2.958-1.519,4.495C153.438,102.164,154.211,102.52,154.441,102.024z"/>
	<path style="fill:#641400;" d="M165.383,98.741c0.315-0.64,0.421-1.359,0.606-2.045c0.215-0.799,0.408-1.585,0.489-2.41
		c0.049-0.499-0.787-0.611-0.875-0.118c-0.255,1.431-1.243,3.013-0.962,4.476C164.706,98.982,165.232,99.048,165.383,98.741z"/>
	<path style="fill:#641400;" d="M173.011,93.417c0.805-1.924,1.754-4.008,1.744-6.132c-0.002-0.522-0.821-0.66-0.928-0.126
		c-0.414,2.062-1.352,3.945-1.773,5.994C171.922,93.796,172.769,93.996,173.011,93.417z"/>
	<path style="fill:#641400;" d="M172.849,106.972c-2.327,1.082-5.02,0.367-7.422,1.183c-0.478,0.162-0.287,0.887,0.21,0.761
		c2.573-0.655,5.222,0.151,7.578-1.317C173.62,107.348,173.269,106.777,172.849,106.972z"/>
	<path style="fill:#641400;" d="M179.669,99.875c-1.631,0.279-3.227,0.545-4.781,1.137c-0.643,0.245-0.382,1.275,0.289,1.047
		c1.558-0.529,3.184-0.755,4.719-1.363C180.406,100.494,180.215,99.782,179.669,99.875z"/>
	<path style="fill:#641400;" d="M166.253,117.158c-1.413-0.837-3.142-0.68-4.721-0.599c-0.61,0.031-0.618,0.964,0,0.953
		c1.516-0.026,2.91,0.077,4.384,0.445C166.397,118.077,166.685,117.414,166.253,117.158z"/>
	<path style="fill:#641400;" d="M158.787,130.281c0.355,0.279,0.768-0.136,0.492-0.492c-1.05-1.35-1.5-3.079-1.656-4.754
		c-0.04-0.429-0.698-0.444-0.68,0C157.014,126.818,157.287,129.104,158.787,130.281z"/>
	<path style="fill:#641400;" d="M174.283,123.219c1.261,0.093,2.569,0.002,3.713-0.569c0.458-0.229,0.115-0.847-0.325-0.771
		c-1.135,0.195-2.23,0.438-3.388,0.473C173.719,122.369,173.729,123.178,174.283,123.219z"/>
	<path style="fill:#641400;" d="M174.347,131.971c-0.44-0.351-1.071,0.25-0.63,0.63c0.448,0.385,0.872,0.792,1.281,1.218
		c0.411,0.427,0.774,0.893,1.244,1.257c0.351,0.272,0.887-0.062,0.644-0.497C176.31,133.546,175.262,132.699,174.347,131.971z"/>
	<path style="fill:#641400;" d="M149.636,130.159c-0.486-0.077-0.707,0.636-0.208,0.753c1.707,0.402,3.217,0.943,4.649,1.974
		c0.327,0.236,0.786-0.229,0.556-0.556C153.548,130.794,151.373,130.433,149.636,130.159z"/>
	<path style="fill:#641400;" d="M142.947,131.285c-0.103,2.394-0.926,4.374-1.522,6.651c-0.105,0.4,0.48,0.667,0.678,0.286
		c1.115-2.14,1.665-4.525,1.516-6.937C143.592,130.854,142.965,130.851,142.947,131.285z"/>
	<path style="fill:#641400;" d="M157.533,138.676c-0.462,0.025-0.465,0.701,0,0.719c1.246,0.047,2.25,0.306,3.391,0.786
		c0.397,0.167,0.667-0.416,0.399-0.686C160.361,138.527,158.795,138.607,157.533,138.676z"/>
	<path style="fill:#641400;" d="M154.171,150.892c0.136-0.754,0.092-1.536,0.143-2.301c0.057-0.853,0.129-1.703,0.051-2.556
		c-0.039-0.425-0.634-0.431-0.664,0c-0.106,1.533-0.636,3.348-0.306,4.857C153.477,151.27,154.1,151.285,154.171,150.892z"/>
	<path style="fill:#641400;" d="M168.283,153.942c-0.809-0.01-1.584,0.193-2.368,0.371c-0.539,0.122-1.387,0.152-1.809,0.546
		c-0.108,0.1-0.097,0.33,0.051,0.393c0.466,0.2,1.094-0.015,1.574-0.091c0.89-0.141,1.794-0.232,2.644-0.544
		C168.729,154.487,168.687,153.947,168.283,153.942z"/>
	<path style="fill:#641400;" d="M168.033,156.282c1.471,0.198,3.017-0.153,4.5-0.168c0.366-0.004,0.452-0.554,0.087-0.645
		c-1.491-0.368-3.095,0.162-4.587,0.32C167.712,155.823,167.72,156.24,168.033,156.282z"/>
	<path style="fill:#641400;" d="M152.806,153.762c-1.369-1.203-3.542-0.93-5.191-1.524c-0.332-0.12-0.542,0.4-0.238,0.564
		c0.766,0.413,1.582,0.587,2.429,0.759c0.923,0.188,1.754,0.494,2.624,0.847C152.791,154.555,153.086,154.008,152.806,153.762z"/>
	<path style="fill:#641400;" d="M154.614,155.992c-1.173-0.479-2.313-0.663-3.581-0.593c-0.494,0.027-0.502,0.782,0,0.773
		c1.144-0.021,2.297,0.194,3.419,0.407C154.844,156.654,154.973,156.138,154.614,155.992z"/>
	<path style="fill:#641400;" d="M184.314,132.567c0.739-0.715,1.51-1.221,2.421-1.684c0.445-0.226,0.103-0.791-0.31-0.735
		c-1.11,0.149-1.969,1.052-2.675,1.856C183.414,132.387,183.942,132.928,184.314,132.567z"/>
	<path style="fill:#641400;" d="M189.434,131.27c0.314-0.453,0.764-0.738,1.262-0.955c0.311-0.135,0.135-0.6-0.164-0.604
		c-0.812-0.011-1.427,0.472-1.901,1.09C188.271,131.269,189.09,131.766,189.434,131.27z"/>
	<path style="fill:#641400;" d="M193.509,129.762c0.479-0.515,1.061-0.882,1.673-1.22c0.297-0.164,0.094-0.634-0.229-0.543
		c-0.777,0.219-1.387,0.692-1.898,1.31C192.798,129.622,193.223,130.069,193.509,129.762z"/>
	<path style="fill:#641400;" d="M177.357,111.985c-0.373,0.259-0.056,0.781,0.351,0.601c0.962-0.428,1.872-0.983,2.772-1.528
		c0.82-0.497,1.697-1.012,2.334-1.74c0.296-0.338-0.074-0.846-0.483-0.626c-0.818,0.441-1.539,1.064-2.306,1.588
		C179.153,110.875,178.224,111.384,177.357,111.985z"/>
	<path style="fill:#641400;" d="M182.72,111.356c1.111-0.622,2.116-1.479,3.081-2.302c0.343-0.292-0.094-0.782-0.459-0.595
		c-1.138,0.583-2.082,1.514-3.071,2.315C181.933,111.046,182.364,111.555,182.72,111.356z"/>
</g>
</svg>
